<svg aria-hidden="true" style="position: absolute; width: 0; height: 0; overflow: hidden;" version="1.1" xmlns="http://www.w3.org/2000/svg" xmlns:xlink="http://www.w3.org/1999/xlink">
<defs>
<symbol id="calendar" viewBox="0 0 32 32">
<path fill="#fff" style="fill: var(--color1, #fff)" d="M6.667 6.333c-0.92 0-1.667 0.747-1.667 1.667v18.667c0 0.92 0.747 1.667 1.667 1.667h18.667c0.92 0 1.667-0.747 1.667-1.667v-18.667c0-0.92-0.747-1.667-1.667-1.667h-18.667zM3 8c0-2.025 1.642-3.667 3.667-3.667v0h18.667c2.025 0 3.667 1.642 3.667 3.667v0 18.667c0 2.025-1.642 3.667-3.667 3.667v0h-18.667c-2.025 0-3.667-1.642-3.667-3.667v0-18.667z"></path>
<path fill="#fff" style="fill: var(--color1, #fff)" d="M21.333 1.667c0.552 0 1 0.448 1 1v0 5.333c0 0.552-0.448 1-1 1s-1-0.448-1-1v0-5.333c0-0.552 0.448-1 1-1v0zM10.667 1.667c0.552 0 1 0.448 1 1v0 5.333c0 0.552-0.448 1-1 1s-1-0.448-1-1v0-5.333c0-0.552 0.448-1 1-1v0zM3 13.333c0-0.552 0.448-1 1-1v0h24c0.552 0 1 0.448 1 1s-0.448 1-1 1v0h-24c-0.552 0-1-0.448-1-1v0z"></path>
</symbol>
<symbol id="map_pin" viewBox="0 0 32 32">
<path fill="#fff" style="fill: var(--color1, #fff)" d="M16 2.333c-6.075 0-11 4.925-11 11v0c0 4.264 2.765 8.355 5.725 11.48 1.596 1.671 3.32 3.191 5.166 4.553l0.108 0.076c1.955-1.439 3.679-2.959 5.26-4.615l0.015-0.015c2.96-3.125 5.725-7.216 5.725-11.48-0.001-6.075-4.925-10.999-11-10.999v0zM16 30.667l-0.555 0.832-0.012-0.008-0.029-0.020c-0.221-0.149-0.386-0.266-0.548-0.386l0.042 0.030c-2.087-1.529-3.925-3.146-5.61-4.912l-0.015-0.016c-3.039-3.207-6.273-7.783-6.273-12.853 0-7.18 5.82-13 13-13s13 5.82 13 13v0c0 5.069-3.235 9.645-6.275 12.853-1.7 1.782-3.538 3.4-5.509 4.848l-0.115 0.081c-0.093 0.070-0.258 0.187-0.424 0.302l-0.081 0.053-0.029 0.020-0.008 0.005-0.003 0.001s-0.001 0.001-0.556-0.831zM16 30.667l0.555 0.832c-0.156 0.105-0.348 0.168-0.555 0.168s-0.399-0.063-0.558-0.17l0.004 0.002 0.555-0.832z"></path>
<path fill="#fff" style="fill: var(--color1, #fff)" d="M16 10.333c-1.657 0-3 1.343-3 3s1.343 3 3 3v0c1.657 0 3-1.343 3-3s-1.343-3-3-3v0zM11 13.333c0-2.761 2.239-5 5-5s5 2.239 5 5v0c0 2.761-2.239 5-5 5s-5-2.239-5-5v0z"></path>
</symbol>
</defs>
</svg>
